<?xml version="1.0" encoding="UTF-8" standalone="no"?>
<!DOCTYPE svg PUBLIC "-//W3C//DTD SVG 1.1//EN" "http://www.w3.org/Graphics/SVG/1.1/DTD/svg11.dtd">
<!-- Created with Vectornator (http://vectornator.io/) -->
<svg height="100%" stroke-miterlimit="10" style="fill-rule:nonzero;clip-rule:evenodd;stroke-linecap:round;stroke-linejoin:round;" version="1.1" viewBox="0 0 820 312" width="100%" xml:space="preserve" xmlns="http://www.w3.org/2000/svg" xmlns:xlink="http://www.w3.org/1999/xlink">
<defs/>
<g id="レイヤー-1" opacity="0.3" visibility="hidden">
<path d="M146.452 115.932C146.452 121.076 145.648 125.711 144.041 129.837C142.433 133.963 140.263 137.419 137.531 140.205C134.798 142.991 131.556 145.135 127.805 146.635C124.054 148.135 120.036 148.885 115.749 148.885C109.962 148.885 104.47 147.68 99.2723 145.269C94.0747 142.857 89.922 139.669 86.8142 135.704L95.3339 125.255C97.7987 128.47 100.88 130.989 104.577 132.811C108.274 134.632 111.998 135.543 115.749 135.543C120.572 135.543 124.537 133.936 127.644 130.721C130.752 127.506 132.306 122.844 132.306 116.736C132.306 113.842 131.824 111.297 130.859 109.1C129.895 106.903 128.555 104.921 126.841 103.152C125.126 101.384 123.17 99.7767 120.973 98.3299C118.776 96.8832 116.392 95.5168 113.82 94.2308C110.712 92.7305 107.792 91.0427 105.059 89.1673C102.327 87.2918 99.8885 85.1217 97.7452 82.6569C95.6018 80.1921 93.914 77.2718 92.6816 73.8961C91.4492 70.5204 90.833 66.5284 90.833 61.9203C90.833 56.4548 91.6903 51.686 93.4049 47.6136C95.1196 43.5413 97.3969 40.1656 100.237 37.4865C103.077 34.8073 106.318 32.8247 109.962 31.5388C113.606 30.2528 117.303 29.6098 121.054 29.6098C126.519 29.6098 131.422 30.5207 135.762 32.3425C140.103 34.1643 143.719 36.8971 146.613 40.5407L137.932 50.8286C133.86 45.4703 128.395 42.7912 121.536 42.7912C119.5 42.7912 117.49 43.1395 115.508 43.836C113.525 44.5326 111.73 45.6579 110.123 47.2118C108.515 48.7657 107.229 50.7215 106.265 53.0791C105.3 55.4368 104.818 58.2767 104.818 61.5988C104.818 64.4923 105.274 66.9839 106.184 69.0736C107.095 71.1634 108.328 73.0388 109.882 74.6998C111.436 76.3609 113.231 77.8612 115.267 79.2008C117.303 80.5404 119.5 81.7996 121.858 82.9784C124.858 84.4787 127.805 86.1666 130.699 88.042C133.592 89.9174 136.218 92.1411 138.575 94.7131C140.933 97.2851 142.835 100.313 144.282 103.795C145.729 107.278 146.452 111.324 146.452 115.932Z" fill="#00b0d3" fill-rule="nonzero" opacity="1" stroke="none"/>
<path d="M165.742 146.153L165.742 32.3425L213.645 32.3425L213.645 45.2024L179.727 45.2024L179.727 81.0494L211.395 81.0494L211.395 93.1056L179.727 93.1056L179.727 133.132L215.253 133.132L215.253 146.153L165.742 146.153Z" fill="#00b0d3" fill-rule="nonzero" opacity="1" stroke="none"/>
<path d="M269.104 146.153L250.457 146.153L222.486 32.3425L238.4 32.3425L260.102 129.435L260.423 129.435L282.124 32.3425L297.556 32.3425L269.104 146.153Z" fill="#00b0d3" fill-rule="nonzero" opacity="1" stroke="none"/>
<path d="M310.898 146.153L310.898 32.3425L358.801 32.3425L358.801 45.2024L324.883 45.2024L324.883 81.0494L356.551 81.0494L356.551 93.1056L324.883 93.1056L324.883 133.132L360.409 133.132L360.409 146.153L310.898 146.153Z" fill="#00b0d3" fill-rule="nonzero" opacity="1" stroke="none"/>
<path d="M429.531 146.153L393.202 57.9016L392.719 57.9016L392.719 146.153L379.377 146.153L379.377 32.3425L396.738 32.3425L432.585 120.754L433.067 120.754L433.067 32.3425L446.41 32.3425L446.41 146.153L429.531 146.153Z" fill="#00b0d3" fill-rule="nonzero" opacity="1" stroke="none"/>
<path d="M494.956 44.7202L494.956 146.153L480.649 146.153L480.649 44.7202L458.948 44.7202L458.948 32.3425L516.657 32.3425L516.657 44.7202L494.956 44.7202Z" fill="#00b0d3" fill-rule="nonzero" opacity="1" stroke="none"/>
<path d="M529.195 146.153L529.195 32.3425L577.099 32.3425L577.099 45.2024L543.181 45.2024L543.181 81.0494L574.848 81.0494L574.848 93.1056L543.181 93.1056L543.181 133.132L578.706 133.132L578.706 146.153L529.195 146.153Z" fill="#00b0d3" fill-rule="nonzero" opacity="1" stroke="none"/>
<path d="M597.674 146.153L597.674 32.3425L645.578 32.3425L645.578 45.2024L611.66 45.2024L611.66 81.0494L643.327 81.0494L643.327 93.1056L611.66 93.1056L611.66 133.132L647.185 133.132L647.185 146.153L597.674 146.153Z" fill="#00b0d3" fill-rule="nonzero" opacity="1" stroke="none"/>
<path d="M716.307 146.153L679.978 57.9016L679.496 57.9016L679.496 146.153L666.153 146.153L666.153 32.3425L683.514 32.3425L719.361 120.754L719.844 120.754L719.844 32.3425L733.186 32.3425L733.186 146.153L716.307 146.153Z" fill="#00b0d3" fill-rule="nonzero" opacity="1" stroke="none"/>
<g opacity="1">
<path d="M247.425 210.82C247.689 207.116 247.689 202.486 247.689 197.857C247.689 193.227 247.689 188.597 247.425 185.026C247.16 179.47 240.943 175.502 235.652 175.369C231.552 175.237 227.186 175.105 222.821 175.105C219.118 175.105 215.678 175.237 212.504 175.369C205.758 175.766 201.922 180.925 201.789 185.819C201.789 189.259 201.657 194.02 201.657 198.65C201.657 203.28 201.789 207.91 201.789 211.084C201.922 216.772 206.287 221.799 212.768 222.063C216.34 222.195 220.176 222.328 223.879 222.328C227.716 222.328 231.552 222.195 235.255 222.063C242.398 221.799 247.16 216.64 247.425 210.82ZM181.419 223.915C181.419 227.09 184.064 228.677 186.842 228.677C189.62 228.677 192.398 227.09 192.398 223.915L192.398 179.999L198.085 179.999C201.525 179.999 203.244 177.486 203.244 174.973C203.244 172.459 201.525 169.946 198.085 169.946L143.455 169.946C140.016 169.946 138.296 172.459 138.296 174.973C138.296 177.486 140.016 179.999 143.455 179.999L151.127 179.999L151.127 213.994C147.953 214.391 144.91 214.656 142.132 214.92C138.825 215.185 137.238 217.566 137.238 219.947C137.238 222.592 139.09 225.238 142.794 225.238C145.042 225.238 161.974 222.592 181.419 217.83L181.419 223.915ZM245.97 279.604C249.541 279.604 251.393 276.826 251.393 274.048C251.393 271.402 249.541 268.625 245.97 268.625L200.334 268.757L200.334 260.027L230.361 260.027C233.8 260.027 235.388 257.513 235.388 255.132C235.388 252.619 233.8 250.238 230.361 250.238L200.334 250.238L200.334 242.169L236.843 242.302C240.414 242.302 242.266 239.656 242.266 237.01C242.266 234.497 240.414 231.852 236.843 231.852L152.45 231.852C148.746 231.852 146.894 234.497 146.894 237.143C146.894 239.656 148.746 242.302 152.45 242.302L188.165 242.169L188.165 250.238L158.932 250.238C155.228 250.238 153.376 252.751 153.376 255.132C153.376 257.646 155.228 260.027 158.932 260.027L188.165 260.027L188.165 268.757L143.852 268.625C140.148 268.625 138.164 271.402 138.164 274.048C138.164 276.826 140.148 279.604 143.852 279.604L245.97 279.604ZM235.652 208.703C235.52 211.349 233.139 212.275 224.938 212.275C216.075 212.275 213.297 212.01 213.165 208.968C213.165 208.968 213.165 208.968 213.165 188.994C213.165 185.29 216.472 185.29 224.012 185.29C232.213 185.29 235.388 185.422 235.652 188.862C235.784 191.375 235.917 194.946 235.917 198.65C235.917 202.222 235.784 205.925 235.652 208.703ZM181.419 185.158L162.106 185.158L162.106 179.999L181.419 179.999L181.419 185.158ZM181.419 197.592L162.106 197.592L162.106 192.301L181.419 192.301L181.419 197.592ZM181.419 208.836C176.26 209.894 169.249 211.216 162.106 212.407L162.106 204.603L181.419 204.603L181.419 208.836Z" fill="#00b0d3" fill-rule="nonzero" opacity="1" stroke="none"/>
<path d="M342.4 252.884C342.4 256.191 345.31 257.91 348.22 257.91C351.262 257.91 354.172 256.191 354.172 252.884L354.172 209.497C358.405 207.38 361.977 205.529 363.961 204.47C364.49 204.206 364.887 204.074 365.416 204.074C367.532 204.074 367.664 207.513 367.664 213.068C367.664 235.423 364.358 237.275 362.241 237.275C361.712 237.275 361.183 237.143 360.654 237.01C360.125 236.878 359.728 236.746 359.331 236.746C356.553 236.746 355.098 239.656 355.098 242.566C355.098 246.799 356.95 248.915 362.903 248.915C376.395 248.915 379.305 238.466 379.305 208.174C379.305 201.031 378.908 191.64 369.384 191.64C366.871 191.64 363.961 192.301 360.654 194.02L354.172 197.327L354.172 174.047C354.172 170.475 351.262 168.623 348.352 168.623C345.31 168.623 342.4 170.475 342.4 174.047L342.4 203.28L330.362 209.232C330.362 199.708 330.362 191.11 330.495 185.687L330.495 185.555C330.495 181.851 327.585 179.999 324.674 179.999C321.764 179.999 318.722 181.983 318.722 185.819C318.722 192.962 318.457 203.809 318.457 215.317L305.759 221.666C303.51 222.725 302.584 224.709 302.584 226.561C302.584 229.471 304.833 232.381 307.875 232.381C308.669 232.381 309.463 232.116 310.389 231.719L318.457 227.619C318.457 241.376 318.457 254.603 318.59 262.937C318.854 279.471 335.786 279.868 350.601 279.868C367.664 279.868 386.183 279.868 386.183 255.926C386.183 249.577 380.628 249.18 379.437 249.18C376.395 249.18 373.617 251.032 373.617 255C373.617 268.096 365.945 268.625 349.807 268.625C338.299 268.625 330.759 268.492 330.495 260.688C330.362 253.677 330.362 237.54 330.362 221.534L342.4 215.449L342.4 252.884ZM285.388 251.429C280.494 253.413 275.467 255.132 270.441 256.852C267.531 257.778 266.208 260.159 266.208 262.54C266.208 265.582 268.457 268.625 272.028 268.625C277.452 268.625 306.023 254.206 310.653 251.693C313.299 250.238 314.489 248.254 314.489 246.402C314.489 243.624 311.976 241.243 308.801 241.243C307.743 241.243 306.685 241.508 305.494 242.169C302.981 243.624 300.203 244.947 297.425 246.27L297.425 216.508L308.008 216.508C311.447 216.508 313.166 213.73 313.166 210.952C313.166 208.174 311.447 205.396 308.008 205.396L297.558 205.396L297.558 177.618C297.558 173.782 294.515 171.93 291.341 171.93C288.298 171.93 285.256 173.782 285.256 177.618L285.256 205.396L273.219 205.396C269.515 205.396 267.531 208.174 267.531 210.952C267.531 213.73 269.515 216.508 273.219 216.508L285.388 216.508L285.388 251.429Z" fill="#00b0d3" fill-rule="nonzero" opacity="1" stroke="none"/>
</g>
<g opacity="1">
<path d="M530.211 279.868L530.211 187.793L529.74 187.793L504.914 279.868L492.187 279.868L467.675 187.793L467.204 187.793L467.204 279.868L454.162 279.868L454.162 168.623L474.903 168.623L498.629 256.928L499.257 256.928L522.512 168.623L544.195 168.623L544.195 279.868L530.211 279.868Z" fill="#00b0d3" fill-rule="nonzero" opacity="1" stroke="none"/>
<path d="M616.944 279.868L610.659 253.785L578.449 253.785L572.006 279.868L557.708 279.868L585.676 168.623L604.374 168.623L631.714 279.868L616.944 279.868ZM595.104 181.822L594.475 181.822L580.334 242.629L608.774 242.629L595.104 181.822Z" fill="#00b0d3" fill-rule="nonzero" opacity="1" stroke="none"/>
<path d="M702.892 199.891C702.892 205.234 702.106 209.947 700.535 214.033C698.964 218.118 696.843 221.496 694.172 224.167C691.5 226.838 688.463 228.855 685.058 230.217C681.654 231.578 678.066 232.259 674.295 232.259L659.211 232.259L659.211 279.868L645.227 279.868L645.227 168.623L673.352 168.623C676.704 168.623 680.135 169.121 683.644 170.116C687.153 171.111 690.322 172.813 693.15 175.223C695.978 177.632 698.309 180.853 700.142 184.886C701.975 188.919 702.892 193.921 702.892 199.891ZM688.908 200.048C688.908 193.344 687.337 188.447 684.194 185.357C681.052 182.267 676.966 180.722 671.938 180.722L659.211 180.722L659.211 220.475L671.938 220.475C676.966 220.475 681.052 218.773 684.194 215.368C687.337 211.964 688.908 206.857 688.908 200.048Z" fill="#00b0d3" fill-rule="nonzero" opacity="1" stroke="none"/>
</g>
<path d="M9.86519 10.2319L810.921 10.2319" fill="none" opacity="1" stroke="#00b0d3" stroke-linecap="round" stroke-linejoin="round" stroke-width="10"/>
<path d="M9.86519 301.553L810.921 301.553" fill="none" opacity="1" stroke="#00b0d3" stroke-linecap="round" stroke-linejoin="round" stroke-width="10"/>
</g>
<g id="レイヤー-2">
<path d="M146.452 115.932C146.452 121.076 145.648 125.711 144.041 129.837C142.433 133.963 140.263 137.419 137.531 140.205C134.798 142.991 131.556 145.135 127.805 146.635C124.054 148.135 120.036 148.885 115.749 148.885C109.962 148.885 104.47 147.68 99.2723 145.269C94.0747 142.857 86.0714 135.949 91.1059 130.441C96.1405 124.932 100.88 130.989 104.577 132.811C108.274 134.632 111.998 135.543 115.749 135.543C120.572 135.543 124.537 133.936 127.644 130.721C130.752 127.506 132.306 122.844 132.306 116.736C132.306 113.842 131.824 111.297 130.859 109.1C129.895 106.903 128.555 104.921 126.841 103.152C125.126 101.384 123.17 99.7767 120.973 98.3299C118.776 96.8832 116.392 95.5168 113.82 94.2308C110.712 92.7305 107.792 91.0427 105.059 89.1673C102.327 87.2918 99.8885 85.1217 97.7452 82.6569C95.6018 80.1921 93.914 77.2718 92.6816 73.8961C91.4492 70.5204 90.833 66.5284 90.833 61.9203C90.833 56.4548 91.6903 51.686 93.4049 47.6136C95.1196 43.5413 97.3969 40.1656 100.237 37.4865C103.077 34.8073 106.318 32.8247 109.962 31.5388C113.606 30.2528 117.303 29.6098 121.054 29.6098C126.519 29.6098 131.422 30.5207 135.762 32.3425C140.103 34.1643 147.036 38.9742 142.508 45.4059C137.98 51.8375 128.395 42.7912 121.536 42.7912C119.5 42.7912 117.49 43.1395 115.508 43.836C113.525 44.5326 111.73 45.6579 110.123 47.2118C108.515 48.7657 107.229 50.7215 106.265 53.0791C105.3 55.4368 104.818 58.2767 104.818 61.5988C104.818 64.4923 105.274 66.9839 106.184 69.0736C107.095 71.1634 108.328 73.0388 109.882 74.6998C111.436 76.3609 113.231 77.8612 115.267 79.2008C117.303 80.5404 119.5 81.7996 121.858 82.9784C124.858 84.4787 127.805 86.1666 130.699 88.042C133.592 89.9174 136.218 92.1411 138.575 94.7131C140.933 97.2851 142.835 100.313 144.282 103.795C145.729 107.278 146.452 111.324 146.452 115.932Z" fill="#ffffff" fill-rule="nonzero" opacity="1" stroke="none"/>
<path d="M165.742 137.977L165.742 39.2381C165.765 34.6854 167.438 32.3274 172.44 32.3216L205.941 32.2172C205.941 32.2172 213.623 31.8131 213.645 38.5034C213.667 45.1937 205.962 45.23 205.962 45.23L179.727 45.2024L179.727 81.0494L204.229 81.0659C204.229 81.0659 211.456 80.6491 211.395 86.9806C211.333 93.3121 204.296 93.0651 204.296 93.0651L179.727 93.1056L179.727 133.132L207.629 133.09C207.629 133.09 215.328 132.837 215.253 139.452C215.177 146.068 207.804 146.156 207.804 146.156L174.18 146.153C168.185 146.209 165.73 143.171 165.742 137.977Z" fill="#ffffff" fill-rule="nonzero" opacity="1" stroke="none"/>
<path d="M310.898 138.107L310.898 39.3681C310.922 34.8154 312.594 32.4575 317.596 32.4516L351.097 32.3472C351.097 32.3472 358.779 31.9431 358.802 38.6334C358.824 45.3238 351.118 45.36 351.118 45.36L324.883 45.3324L324.883 81.1794L349.385 81.1959C349.385 81.1959 356.612 80.7791 356.551 87.1106C356.49 93.4422 349.452 93.1951 349.452 93.1951L324.883 93.2356L324.883 133.262L352.785 133.22C352.785 133.22 360.484 132.967 360.409 139.582C360.334 146.198 352.96 146.286 352.96 146.286L319.336 146.283C313.341 146.339 310.886 143.301 310.898 138.107Z" fill="#ffffff" fill-rule="nonzero" opacity="1" stroke="none"/>
<path d="M529.195 138.107L529.195 39.3681C529.218 34.8154 530.891 32.4575 535.893 32.4516L569.394 32.3472C569.394 32.3472 577.076 31.9431 577.098 38.6334C577.12 45.3238 569.415 45.36 569.415 45.36L543.18 45.3324L543.18 81.1794L567.682 81.1959C567.682 81.1959 574.909 80.7791 574.847 87.1106C574.786 93.4422 567.749 93.1951 567.749 93.1951L543.18 93.2356L543.18 133.262L571.082 133.22C571.082 133.22 578.781 132.967 578.705 139.582C578.63 146.198 571.257 146.286 571.257 146.286L537.632 146.283C531.638 146.339 529.183 143.301 529.195 138.107Z" fill="#ffffff" fill-rule="nonzero" opacity="1" stroke="none"/>
<path d="M597.674 138.107L597.674 39.3681C597.698 34.8154 599.37 32.4575 604.372 32.4516L637.873 32.3472C637.873 32.3472 645.556 31.9431 645.578 38.6334C645.6 45.3238 637.895 45.36 637.895 45.36L611.66 45.3324L611.66 81.1794L636.161 81.1959C636.161 81.1959 643.388 80.7791 643.327 87.1106C643.266 93.4422 636.228 93.1951 636.228 93.1951L611.66 93.2356L611.66 133.262L639.561 133.22C639.561 133.22 647.26 132.967 647.185 139.582C647.11 146.198 639.737 146.286 639.737 146.286L606.112 146.283C600.117 146.339 597.662 143.301 597.674 138.107Z" fill="#ffffff" fill-rule="nonzero" opacity="1" stroke="none"/>
<path d="M268.354 144.584C266.97 145.726 264.981 146.11 264.981 146.11L260.296 146.136L255.182 146.145C255.182 146.145 252.828 145.998 251.424 144.876C250.02 143.753 249.351 141.655 249.351 141.655L224.67 40.8462C224.67 40.8462 222.763 33.2519 230.506 32.3425C238.245 31.4337 239.655 38.8137 239.655 38.8137L260.102 129.435L260.423 129.435L280.546 39.5092C280.546 39.5092 282.284 31.5936 289.713 32.3425C297.142 33.0914 295.517 40.1599 295.517 40.1599L270.247 141.577C270.247 141.577 269.737 143.442 268.354 144.584Z" fill="#ffffff" fill-rule="nonzero" opacity="1" stroke="none"/>
<path d="M426.504 138.8L393.202 57.9016L392.719 57.9016L392.719 139.153C392.719 139.153 392.728 146.137 386.15 146.133C379.572 146.128 379.377 139.153 379.377 139.153L379.377 40.5821C379.353 34.7744 383.773 32.3001 388.245 32.3425C394.059 32.3977 396.666 33.9272 399.966 40.3044L432.585 120.754L433.067 120.754L433.067 39.3425C433.067 39.3425 433.204 32.3374 439.792 32.3425C446.38 32.3476 446.41 39.3425 446.41 39.3425L446.459 137.63C446.501 143.021 441.511 146.046 437.953 146.084C432.092 146.148 428.842 144.049 426.504 138.8Z" fill="#ffffff" fill-rule="nonzero" opacity="1" stroke="none"/>
<path d="M713.28 138.953L679.978 58.0551L679.496 58.0551L679.496 139.306C679.496 139.306 679.505 146.291 672.927 146.286C666.349 146.281 666.154 139.306 666.154 139.306L666.154 40.7356C666.129 34.9279 670.549 32.4536 675.021 32.496C680.835 32.5512 683.442 34.0807 686.743 40.4579L719.361 120.908L719.844 120.908L719.844 39.496C719.844 39.496 719.98 32.4909 726.568 32.496C733.156 32.5011 733.186 39.496 733.186 39.496L733.235 137.784C733.277 143.175 728.288 146.2 724.729 146.238C718.868 146.301 715.618 144.202 713.28 138.953Z" fill="#ffffff" fill-rule="nonzero" opacity="1" stroke="none"/>
<path d="M494.956 44.7202L494.956 139.153C494.956 139.153 494.824 146.217 487.751 146.153C480.678 146.089 480.649 139.153 480.649 139.153L480.649 44.7202L465.948 44.7202C465.948 44.7202 458.935 44.8119 458.948 38.5789C458.961 32.3458 465.948 32.3425 465.948 32.3425L509.657 32.3425C509.657 32.3425 516.737 32.2132 516.657 38.5483C516.577 44.8833 509.657 44.7202 509.657 44.7202L494.956 44.7202Z" fill="#ffffff" fill-rule="nonzero" opacity="1" stroke="none"/>
<g opacity="1">
<path d="M247.425 210.82C247.689 207.116 247.689 202.486 247.689 197.857C247.689 193.227 247.689 188.597 247.425 185.026C247.16 179.47 240.943 175.502 235.652 175.369C231.552 175.237 227.186 175.105 222.821 175.105C219.118 175.105 215.678 175.237 212.504 175.369C205.758 175.766 201.922 180.925 201.789 185.819C201.789 189.259 201.657 194.02 201.657 198.65C201.657 203.28 201.789 207.91 201.789 211.084C201.922 216.772 206.287 221.799 212.768 222.063C216.34 222.195 220.176 222.328 223.879 222.328C227.716 222.328 231.552 222.195 235.255 222.063C242.398 221.799 247.16 216.64 247.425 210.82ZM181.419 223.915C181.419 227.09 184.064 228.677 186.842 228.677C189.62 228.677 192.398 227.09 192.398 223.915L192.398 179.999L198.085 179.999C201.525 179.999 203.244 177.486 203.244 174.973C203.244 172.459 201.525 169.946 198.085 169.946L143.455 169.946C140.016 169.946 138.296 172.459 138.296 174.973C138.296 177.486 140.016 179.999 143.455 179.999L151.127 179.999L151.127 213.994C147.953 214.391 144.91 214.656 142.132 214.92C138.825 215.185 137.238 217.566 137.238 219.947C137.238 222.592 139.09 225.238 142.794 225.238C145.042 225.238 161.974 222.592 181.419 217.83L181.419 223.915ZM245.97 279.604C249.541 279.604 251.393 276.826 251.393 274.048C251.393 271.402 249.541 268.625 245.97 268.625L200.334 268.757L200.334 260.027L230.361 260.027C233.8 260.027 235.388 257.513 235.388 255.132C235.388 252.619 233.8 250.238 230.361 250.238L200.334 250.238L200.334 242.169L236.843 242.302C240.414 242.302 242.266 239.656 242.266 237.01C242.266 234.497 240.414 231.852 236.843 231.852L152.45 231.852C148.746 231.852 146.894 234.497 146.894 237.143C146.894 239.656 148.746 242.302 152.45 242.302L188.165 242.169L188.165 250.238L158.932 250.238C155.228 250.238 153.376 252.751 153.376 255.132C153.376 257.646 155.228 260.027 158.932 260.027L188.165 260.027L188.165 268.757L143.852 268.625C140.148 268.625 138.164 271.402 138.164 274.048C138.164 276.826 140.148 279.604 143.852 279.604L245.97 279.604ZM235.652 208.703C235.52 211.349 233.139 212.275 224.938 212.275C216.075 212.275 213.297 212.01 213.165 208.968C213.165 208.968 213.165 208.968 213.165 188.994C213.165 185.29 216.472 185.29 224.012 185.29C232.213 185.29 235.388 185.422 235.652 188.862C235.784 191.375 235.917 194.946 235.917 198.65C235.917 202.222 235.784 205.925 235.652 208.703ZM181.419 185.158L162.106 185.158L162.106 179.999L181.419 179.999L181.419 185.158ZM181.419 197.592L162.106 197.592L162.106 192.301L181.419 192.301L181.419 197.592ZM181.419 208.836C176.26 209.894 169.249 211.216 162.106 212.407L162.106 204.603L181.419 204.603L181.419 208.836Z" fill="#ffffff" fill-rule="nonzero" opacity="1" stroke="none"/>
<path d="M342.4 252.884C342.4 256.191 345.31 257.91 348.22 257.91C351.262 257.91 354.172 256.191 354.172 252.884L354.172 209.497C358.405 207.38 361.977 205.529 363.961 204.47C364.49 204.206 364.887 204.074 365.416 204.074C367.532 204.074 367.664 207.513 367.664 213.068C367.664 235.423 364.358 237.275 362.241 237.275C361.712 237.275 361.183 237.143 360.654 237.01C360.125 236.878 359.728 236.746 359.331 236.746C356.553 236.746 355.098 239.656 355.098 242.566C355.098 246.799 356.95 248.915 362.903 248.915C376.395 248.915 379.305 238.466 379.305 208.174C379.305 201.031 378.908 191.64 369.384 191.64C366.871 191.64 363.961 192.301 360.654 194.02L354.172 197.327L354.172 174.047C354.172 170.475 351.262 168.623 348.352 168.623C345.31 168.623 342.4 170.475 342.4 174.047L342.4 203.28L330.362 209.232C330.362 199.708 330.362 191.11 330.495 185.687L330.495 185.555C330.495 181.851 327.585 179.999 324.674 179.999C321.764 179.999 318.722 181.983 318.722 185.819C318.722 192.962 318.457 203.809 318.457 215.317L305.759 221.666C303.51 222.725 302.584 224.709 302.584 226.561C302.584 229.471 304.833 232.381 307.875 232.381C308.669 232.381 309.463 232.116 310.389 231.719L318.457 227.619C318.457 241.376 318.457 254.603 318.59 262.937C318.854 279.471 335.786 279.868 350.601 279.868C367.664 279.868 386.183 279.868 386.183 255.926C386.183 249.577 380.628 249.18 379.437 249.18C376.395 249.18 373.617 251.032 373.617 255C373.617 268.096 365.945 268.625 349.807 268.625C338.299 268.625 330.759 268.492 330.495 260.688C330.362 253.677 330.362 237.54 330.362 221.534L342.4 215.449L342.4 252.884ZM285.388 251.429C280.494 253.413 275.467 255.132 270.441 256.852C267.531 257.778 266.208 260.159 266.208 262.54C266.208 265.582 268.457 268.625 272.028 268.625C277.452 268.625 306.023 254.206 310.653 251.693C313.299 250.238 314.489 248.254 314.489 246.402C314.489 243.624 311.976 241.243 308.801 241.243C307.743 241.243 306.685 241.508 305.494 242.169C302.981 243.624 300.203 244.947 297.425 246.27L297.425 216.508L308.008 216.508C311.447 216.508 313.166 213.73 313.166 210.952C313.166 208.174 311.447 205.396 308.008 205.396L297.558 205.396L297.558 177.618C297.558 173.782 294.515 171.93 291.341 171.93C288.298 171.93 285.256 173.782 285.256 177.618L285.256 205.396L273.219 205.396C269.515 205.396 267.531 208.174 267.531 210.952C267.531 213.73 269.515 216.508 273.219 216.508L285.388 216.508L285.388 251.429Z" fill="#ffffff" fill-rule="nonzero" opacity="1" stroke="none"/>
</g>
<path d="M530.211 272.868L530.211 187.793L529.74 187.793L506.669 273.32C506.669 273.32 504.927 279.868 498.576 279.868C492.225 279.868 490.48 273.244 490.48 273.244L467.675 187.793L467.204 187.793L467.204 272.868C467.204 272.868 467.121 279.868 460.594 279.868C454.066 279.868 454.162 272.868 454.162 272.868L454.162 175.754C454.162 175.754 454.833 168.623 464.945 168.623C475.057 168.623 476.735 175.601 476.735 175.601L498.629 256.928L499.257 256.928L520.754 175.799C520.754 175.799 522.434 168.623 533.162 168.623C543.891 168.623 544.195 176.623 544.195 176.623L544.195 272.868C544.195 272.868 543.995 279.868 537.101 279.868C530.207 279.868 530.211 272.868 530.211 272.868Z" fill="#ffffff" fill-rule="nonzero" opacity="1" stroke="none"/>
<path d="M615.625 274.465L610.659 253.785L578.449 253.785L573.293 274.086C573.293 274.086 571.085 281.285 564.689 279.868C558.292 278.452 559.736 272.358 559.736 272.358L583.834 176.321C583.834 176.321 585.685 168.623 594.842 168.623C603.999 168.623 606.095 176.44 606.095 176.44L629.735 272.128C629.735 272.128 630.598 278.467 624.303 279.868C618.008 281.269 615.625 274.465 615.625 274.465ZM595.104 181.822L594.475 181.822L580.334 242.629L608.774 242.629L595.104 181.822Z" fill="#ffffff" fill-rule="nonzero" opacity="1" stroke="none"/>
<path d="M702.892 199.891C702.892 205.234 702.106 209.947 700.535 214.033C698.964 218.118 696.843 221.496 694.172 224.167C691.5 226.838 688.463 228.855 685.058 230.217C681.654 231.578 678.066 232.259 674.295 232.259L659.211 232.259L659.211 272.868C659.211 272.868 659.065 279.868 652.271 279.868C645.476 279.868 645.227 272.868 645.227 272.868L645.227 176.929C645.233 170.835 648.683 168.623 653.717 168.623L673.352 168.623C676.704 168.623 680.135 169.121 683.644 170.116C687.153 171.111 690.322 172.813 693.15 175.223C695.978 177.632 698.309 180.853 700.142 184.886C701.975 188.919 702.892 193.921 702.892 199.891ZM688.908 200.048C688.908 193.344 687.337 188.447 684.194 185.357C681.052 182.267 676.966 180.722 671.938 180.722L659.211 180.722L659.211 220.475L671.938 220.475C676.966 220.475 681.052 218.773 684.194 215.368C687.337 211.964 688.908 206.857 688.908 200.048Z" fill="#ffffff" fill-rule="nonzero" opacity="1" stroke="none"/>
<path d="M9.86519 10.2319L810.921 10.2319" fill="#ffffff" fill-rule="nonzero" opacity="1" stroke="none"/>
<path d="M9.86519 301.553L810.921 301.553" fill="#ffffff" fill-rule="nonzero" opacity="1" stroke="none"/>
<path d="M9.86519 10.2319L810.921 10.2319" fill="none" opacity="1" stroke="#ffffff" stroke-linecap="round" stroke-linejoin="round" stroke-width="10"/>
<path d="M9.47191 301.553L810.528 301.553" fill="none" opacity="1" stroke="#ffffff" stroke-linecap="round" stroke-linejoin="round" stroke-width="10"/>
</g>
</svg>
