<?xml version="1.0" encoding="UTF-8" standalone="no"?>
<!DOCTYPE svg PUBLIC "-//W3C//DTD SVG 1.1//EN" "http://www.w3.org/Graphics/SVG/1.1/DTD/svg11.dtd">
<!-- Created with Vectornator (http://vectornator.io/) -->
<svg height="100%" stroke-miterlimit="10" style="fill-rule:nonzero;clip-rule:evenodd;stroke-linecap:round;stroke-linejoin:round;" version="1.1" viewBox="0 0 820 312" width="100%" xml:space="preserve" xmlns="http://www.w3.org/2000/svg" xmlns:vectornator="http://vectornator.io" xmlns:xlink="http://www.w3.org/1999/xlink">
<defs/>
<g id="レイヤー-1" vectornator:layerName="レイヤー 1" visibility="hidden">
<g fill="#00b0d3" opacity="1" stroke="none">
<path d="M58.3512 182.132L48.5592 182.132L48.5592 179.924C48.5592 177.684 48.0312 175.748 46.9752 174.116C45.9192 172.484 44.1432 171.668 41.6472 171.668C40.3032 171.668 39.2152 171.924 38.3832 172.436C37.5512 172.948 36.8792 173.588 36.3672 174.356C35.8552 175.188 35.5032 176.132 35.3112 177.188C35.1192 178.244 35.0232 179.348 35.0232 180.5C35.0232 181.844 35.0712 182.964 35.1672 183.86C35.2632 184.756 35.5032 185.556 35.8872 186.26C36.2712 186.964 36.8312 187.572 37.5672 188.084C38.3032 188.596 39.3112 189.108 40.5912 189.62L48.0792 192.596C50.2552 193.428 52.0152 194.404 53.3592 195.524C54.7032 196.644 55.7592 197.94 56.5272 199.412C57.2312 200.948 57.7112 202.692 57.9672 204.644C58.2232 206.596 58.3512 208.82 58.3512 211.316C58.3512 214.196 58.0632 216.868 57.4872 219.332C56.9112 221.796 55.9832 223.892 54.7032 225.62C53.3592 227.412 51.5992 228.82 49.4232 229.844C47.2472 230.868 44.5912 231.38 41.4552 231.38C39.0872 231.38 36.8792 230.964 34.8312 230.132C32.7832 229.3 31.0232 228.148 29.5512 226.676C28.0792 225.204 26.9112 223.492 26.0472 221.54C25.1832 219.588 24.7512 217.46 24.7512 215.156L24.7512 211.508L34.5432 211.508L34.5432 214.58C34.5432 216.372 35.0712 217.988 36.1272 219.428C37.1832 220.868 38.9592 221.588 41.4552 221.588C43.1192 221.588 44.4152 221.348 45.3432 220.868C46.2712 220.388 46.9912 219.7 47.5032 218.804C48.0152 217.908 48.3192 216.836 48.4152 215.588C48.5112 214.34 48.5592 212.948 48.5592 211.412C48.5592 209.62 48.4952 208.148 48.3672 206.996C48.2392 205.844 47.9832 204.916 47.5992 204.212C47.1512 203.508 46.5592 202.932 45.8232 202.484C45.0872 202.036 44.1112 201.556 42.8952 201.044L35.8872 198.164C31.6632 196.436 28.8312 194.148 27.3912 191.3C25.9512 188.452 25.2312 184.884 25.2312 180.596C25.2312 178.036 25.5832 175.604 26.2872 173.3C26.9912 170.996 28.0472 169.012 29.4552 167.348C30.7992 165.684 32.5112 164.356 34.5912 163.364C36.6712 162.372 39.1512 161.876 42.0312 161.876C44.4632 161.876 46.6872 162.324 48.7032 163.22C50.7192 164.116 52.4632 165.3 53.9352 166.772C56.8792 169.844 58.3512 173.364 58.3512 177.332L58.3512 182.132Z"/>
<path d="M65.6472 230.804L65.6472 162.452L94.8312 162.452L94.8312 171.668L75.4392 171.668L75.4392 191.732L92.3352 191.732L92.3352 200.948L75.4392 200.948L75.4392 221.012L94.8312 221.012L94.8312 230.804L65.6472 230.804Z"/>
<path d="M134.383 162.452L120.367 230.804L111.727 230.804L97.8072 162.452L108.175 162.452L115.951 210.164L116.143 210.164L124.015 162.452L134.383 162.452Z"/>
<path d="M140.239 230.804L140.239 162.452L169.423 162.452L169.423 171.668L150.031 171.668L150.031 191.732L166.927 191.732L166.927 200.948L150.031 200.948L150.031 221.012L169.423 221.012L169.423 230.804L140.239 230.804Z"/>
<path d="M175.375 230.804L175.375 162.452L184.783 162.452L199.567 203.636L199.759 203.636L199.759 162.452L209.551 162.452L209.551 230.804L200.335 230.804L185.359 189.716L185.167 189.716L185.167 230.804L175.375 230.804Z"/>
<path d="M224.815 230.804L224.815 171.668L213.487 171.668L213.487 162.452L245.935 162.452L245.935 171.668L234.607 171.668L234.607 230.804L224.815 230.804Z"/>
<path d="M250.255 230.804L250.255 162.452L279.439 162.452L279.439 171.668L260.047 171.668L260.047 191.732L276.943 191.732L276.943 200.948L260.047 200.948L260.047 221.012L279.439 221.012L279.439 230.804L250.255 230.804Z"/>
<path d="M285.775 230.804L285.775 162.452L314.959 162.452L314.959 171.668L295.567 171.668L295.567 191.732L312.463 191.732L312.463 200.948L295.567 200.948L295.567 221.012L314.959 221.012L314.959 230.804L285.775 230.804Z"/>
<path d="M320.911 230.804L320.911 162.452L330.319 162.452L345.103 203.636L345.295 203.636L345.295 162.452L355.087 162.452L355.087 230.804L345.871 230.804L330.895 189.716L330.703 189.716L330.703 230.804L320.911 230.804Z"/>
</g>
<g fill="#00b0d3" opacity="1" stroke="none">
<path d="M374.755 201.748C373.243 201.82 370.795 201.892 370.291 201.892C370.003 201.892 369.355 201.892 368.707 201.82L369.643 209.524C370.363 209.38 372.235 209.092 374.035 208.876C379.147 208.372 386.059 207.436 393.763 206.212C393.763 207.364 393.691 208.3 393.619 209.38L402.619 209.38C402.403 207.508 402.331 205.276 402.331 203.332L402.331 182.524C404.131 182.668 404.131 182.668 404.995 182.812L404.995 174.892C402.979 175.18 401.323 175.252 397.651 175.252L376.843 175.252C373.963 175.252 371.731 175.108 369.571 174.82L369.571 182.812C370.939 182.668 372.235 182.524 374.755 182.524L374.755 201.748ZM383.323 182.38L393.763 182.38L393.763 184.972L383.323 184.972L383.323 182.38ZM383.323 190.228L393.763 190.228L393.763 192.748L383.323 192.748L383.323 190.228ZM383.323 198.004L393.763 198.004L393.763 199.948C388.219 200.596 388.219 200.596 383.323 201.1L383.323 198.004ZM397.147 217.804L397.147 220.684L383.107 220.684C380.011 220.684 378.283 220.612 376.267 220.396L376.267 227.596C378.355 227.38 380.155 227.308 383.107 227.308L397.147 227.308L397.147 230.476L377.923 230.476C374.611 230.476 372.163 230.332 369.715 230.044L369.715 238.324C372.523 238.036 375.619 237.892 379.363 237.892L425.227 237.892C428.683 237.892 432.355 238.036 434.947 238.324L434.947 230.044C432.427 230.332 430.195 230.476 426.739 230.476L406.291 230.476L406.291 227.308L421.771 227.308C424.723 227.308 426.451 227.38 428.611 227.596L428.611 220.396C426.523 220.612 424.867 220.684 421.771 220.684L406.291 220.684L406.291 217.804L423.643 217.804C427.099 217.804 429.259 217.876 431.563 218.092L431.563 210.388C429.691 210.676 426.811 210.82 423.643 210.82L381.019 210.82C377.491 210.82 375.331 210.676 373.099 210.388L373.099 218.092C375.403 217.876 377.491 217.804 381.019 217.804L397.147 217.804ZM406.147 201.964C406.147 204.844 406.075 205.996 405.859 207.796C407.947 207.652 409.675 207.58 411.907 207.58L427.171 207.58C429.691 207.58 431.203 207.652 433.219 207.868C433.003 205.996 432.931 204.268 432.931 201.388L432.931 183.1C432.931 180.22 433.003 178.636 433.219 176.548C431.275 176.764 429.835 176.836 427.171 176.836L411.907 176.836C409.243 176.836 407.803 176.764 405.859 176.548C406.075 178.42 406.147 179.5 406.147 182.452L406.147 201.964ZM414.859 185.116L423.859 185.116L423.859 199.372L414.859 199.372L414.859 185.116Z"/>
<path d="M461.587 208.012C462.955 207.364 463.891 207.076 465.619 206.5C465.835 206.428 466.123 206.356 466.555 206.212L466.555 230.908C466.555 237.46 469.795 238.828 484.915 238.828C497.227 238.828 502.051 238.108 504.643 236.02C506.803 234.22 507.811 230.404 508.171 222.772C505.075 222.268 501.907 221.404 498.811 220.252C498.811 224.86 498.451 227.164 497.659 228.244C496.579 229.684 494.419 230.044 485.707 230.044C481.315 230.044 478.939 229.9 477.355 229.54C476.059 229.252 475.699 228.82 475.699 227.596L475.699 203.404L481.243 201.676L481.243 215.932C481.243 219.604 481.171 221.044 480.883 223.564L490.603 223.564C490.315 221.116 490.243 219.388 490.243 216.22L490.243 198.94L496.939 196.852C496.795 202.828 496.651 206.068 496.363 208.084C496.075 210.316 495.787 210.532 493.915 210.532C493.051 210.532 491.899 210.388 490.387 210.028C491.683 212.908 492.331 215.284 492.691 218.74C494.419 218.884 495.067 218.884 496.003 218.884C498.739 218.884 500.611 218.524 501.907 217.732C503.851 216.436 504.571 214.42 505.147 207.868C505.219 206.932 505.435 203.62 505.723 197.86C505.939 192.892 505.939 192.46 506.011 190.804C506.155 187.78 506.155 187.42 506.299 184.972C504.283 185.908 503.275 186.196 500.323 187.132L490.243 190.156L490.243 181.372C490.243 178.564 490.387 176.26 490.675 173.668L480.883 173.668C481.171 176.188 481.243 177.556 481.243 181.156L481.243 192.82L475.699 194.476L475.699 188.14C475.699 185.044 475.771 183.316 476.059 180.724L466.195 180.724C466.483 183.028 466.555 184.828 466.555 188.5L466.555 197.212C464.971 197.644 464.539 197.716 462.811 198.148L462.811 190.66C461.803 190.876 460.867 190.948 458.491 190.948L457.051 190.948L457.051 182.236C457.051 178.06 457.123 176.044 457.483 173.74L447.763 173.74C448.123 176.116 448.195 178.132 448.195 182.164L448.195 190.948L446.971 190.948C444.379 190.948 443.083 190.876 441.571 190.588L441.571 199.66C443.083 199.372 444.379 199.3 446.971 199.3L448.195 199.3L448.195 220.756C444.019 222.268 442.219 222.772 440.131 223.06L441.787 232.852C442.795 232.42 443.443 232.132 445.531 231.34C452.587 228.748 456.691 226.948 463.459 223.492L463.243 214.348C460.147 215.86 459.211 216.292 457.051 217.228L457.051 199.3L458.131 199.3C459.211 199.3 459.499 199.3 460.435 199.372L461.587 208.012Z"/>
</g>
<g fill="#00b0d3" opacity="1" stroke="none">
<path d="M671.296 231.38L671.296 163.028L680.704 163.028L693.28 199.22L693.472 199.22L705.952 163.028L715.456 163.028L715.456 231.38L705.664 231.38L705.664 189.812L705.472 189.812L695.776 219.188L690.88 219.188L681.28 189.812L681.088 189.812L681.088 231.38L671.296 231.38Z"/>
<path d="M744.448 207.476L739.648 182.708L739.456 182.708L734.656 207.476L744.448 207.476ZM720.256 231.38L735.52 163.028L743.68 163.028L758.944 231.38L749.152 231.38L746.272 216.692L732.928 216.692L730.048 231.38L720.256 231.38Z"/>
<path d="M763.744 231.38L763.744 163.028L778.432 163.028C781.12 163.028 783.488 163.38 785.536 164.084C787.584 164.788 789.44 166.036 791.104 167.828C792.768 169.62 793.92 171.716 794.56 174.116C795.2 176.516 795.52 179.764 795.52 183.86C795.52 186.932 795.344 189.524 794.992 191.636C794.64 193.748 793.888 195.732 792.736 197.588C791.392 199.828 789.6 201.572 787.36 202.82C785.12 204.068 782.176 204.692 778.528 204.692L773.536 204.692L773.536 231.38L763.744 231.38ZM773.536 172.244L773.536 195.476L778.24 195.476C780.224 195.476 781.76 195.188 782.848 194.612C783.936 194.036 784.736 193.236 785.248 192.212C785.76 191.252 786.064 190.068 786.16 188.66C786.256 187.252 786.304 185.684 786.304 183.956C786.304 182.356 786.272 180.836 786.208 179.396C786.144 177.956 785.856 176.692 785.344 175.604C784.832 174.516 784.064 173.684 783.04 173.108C782.016 172.532 780.544 172.244 778.624 172.244L773.536 172.244Z"/>
</g>
</g>
<g id="レイヤー-2" vectornator:layerName="レイヤー 2" visibility="hidden">
<g opacity="1">
<path d="M60.5387 257.843C60.5387 261.291 59.9999 264.398 58.9224 267.163C57.8449 269.929 56.3903 272.245 54.5585 274.113C52.7268 275.981 50.5538 277.417 48.0396 278.423C45.5254 279.429 42.8317 279.932 39.9583 279.932C36.0793 279.932 32.3978 279.124 28.9139 277.507C25.43 275.891 22.6464 273.754 20.5632 271.096L26.274 264.092C27.9262 266.247 29.9914 267.935 32.4697 269.157C34.9479 270.378 37.4441 270.988 39.9583 270.988C43.1908 270.988 45.8487 269.911 47.9319 267.756C50.015 265.601 51.0566 262.476 51.0566 258.382C51.0566 256.442 50.7334 254.736 50.0869 253.263C49.4404 251.791 48.5424 250.462 47.3931 249.277C46.2438 248.091 44.9328 247.014 43.4602 246.044C41.9876 245.074 40.3893 244.159 38.6653 243.297C36.5821 242.291 34.6247 241.159 32.7929 239.902C30.9612 238.645 29.3269 237.191 27.8903 235.538C26.4536 233.886 25.3222 231.929 24.4961 229.666C23.67 227.403 23.257 224.728 23.257 221.639C23.257 217.975 23.8317 214.779 24.981 212.049C26.1303 209.319 27.6568 207.056 29.5604 205.261C31.464 203.465 33.637 202.136 36.0793 201.274C38.5217 200.412 40.9999 199.981 43.5141 199.981C47.1776 199.981 50.464 200.591 53.3733 201.813C56.2825 203.034 58.7069 204.866 60.6464 207.308L54.8279 214.204C52.0982 210.612 48.4347 208.816 43.8373 208.816C42.4725 208.816 41.1256 209.05 39.7967 209.517C38.4678 209.984 37.2646 210.738 36.1871 211.78C35.1096 212.821 34.2475 214.132 33.601 215.712C32.9545 217.293 32.6313 219.196 32.6313 221.423C32.6313 223.363 32.9366 225.033 33.5472 226.434C34.1578 227.834 34.9838 229.091 36.0254 230.205C37.067 231.318 38.2702 232.324 39.6351 233.222C40.9999 234.12 42.4725 234.964 44.0528 235.754C46.0642 236.76 48.0396 237.891 49.9791 239.148C51.9186 240.405 53.6785 241.896 55.2589 243.62C56.8392 245.344 58.1143 247.373 59.084 249.708C60.0538 252.042 60.5387 254.754 60.5387 257.843Z" fill="#00b0d3" fill-rule="nonzero" opacity="1" stroke="none"/>
<path d="M70.1015 278.1L70.1015 201.813L102.211 201.813L102.211 210.433L79.4758 210.433L79.4758 234.461L100.703 234.461L100.703 242.542L79.4758 242.542L79.4758 269.372L103.289 269.372L103.289 278.1L70.1015 278.1Z" fill="#00b0d3" fill-rule="nonzero" opacity="1" stroke="none"/>
<path d="M136.018 278.1L123.519 278.1L104.77 201.813L115.438 201.813L129.984 266.894L130.199 266.894L144.746 201.813L155.09 201.813L136.018 278.1Z" fill="#00b0d3" fill-rule="nonzero" opacity="1" stroke="none"/>
<path d="M160.666 278.1L160.666 201.813L192.775 201.813L192.775 210.433L170.04 210.433L170.04 234.461L191.267 234.461L191.267 242.542L170.04 242.542L170.04 269.372L193.853 269.372L193.853 278.1L160.666 278.1Z" fill="#00b0d3" fill-rule="nonzero" opacity="1" stroke="none"/>
<path d="M236.818 278.1L212.467 218.945L212.144 218.945L212.144 278.1L203.2 278.1L203.2 201.813L214.837 201.813L238.866 261.075L239.189 261.075L239.189 201.813L248.132 201.813L248.132 278.1L236.818 278.1Z" fill="#00b0d3" fill-rule="nonzero" opacity="1" stroke="none"/>
<path d="M277.306 210.109L277.306 278.1L267.716 278.1L267.716 210.109L253.17 210.109L253.17 201.813L291.852 201.813L291.852 210.109L277.306 210.109Z" fill="#00b0d3" fill-rule="nonzero" opacity="1" stroke="none"/>
<path d="M296.889 278.1L296.889 201.813L328.999 201.813L328.999 210.433L306.264 210.433L306.264 234.461L327.49 234.461L327.49 242.542L306.264 242.542L306.264 269.372L330.076 269.372L330.076 278.1L296.889 278.1Z" fill="#00b0d3" fill-rule="nonzero" opacity="1" stroke="none"/>
<path d="M339.424 278.1L339.424 201.813L371.533 201.813L371.533 210.433L348.798 210.433L348.798 234.461L370.025 234.461L370.025 242.542L348.798 242.542L348.798 269.372L372.611 269.372L372.611 278.1L339.424 278.1Z" fill="#00b0d3" fill-rule="nonzero" opacity="1" stroke="none"/>
<path d="M415.576 278.1L391.225 218.945L390.902 218.945L390.902 278.1L381.958 278.1L381.958 201.813L393.595 201.813L417.624 261.075L417.947 261.075L417.947 201.813L426.89 201.813L426.89 278.1L415.576 278.1Z" fill="#00b0d3" fill-rule="nonzero" opacity="1" stroke="none"/>
</g>
<g opacity="1">
<path d="M476.127 254.467L476.127 261.55L450.881 261.55C449.428 261.55 448.702 262.64 448.702 264.184C448.702 265.818 449.428 266.999 450.881 266.999L476.127 266.999L476.127 274.809L441.346 274.809C439.984 274.809 439.076 276.08 439.076 277.715C439.076 279.349 439.984 280.621 441.346 280.621L519.443 280.621C520.896 280.621 521.714 279.349 521.714 277.715C521.714 276.08 520.896 274.809 519.443 274.809L482.847 274.809L482.847 266.999L509.999 266.999C511.361 266.999 512.088 265.818 512.088 264.184C512.088 262.64 511.361 261.55 509.999 261.55L482.847 261.55L482.847 254.467L514.267 254.467C515.72 254.467 516.447 253.196 516.447 251.561C516.447 249.927 515.72 248.837 514.267 248.837L446.432 248.837C444.979 248.837 444.161 250.017 444.161 251.561C444.161 253.287 444.979 254.467 446.432 254.467L476.127 254.467ZM446.977 208.699L446.977 237.849C444.979 238.03 443.072 238.121 441.165 238.212C439.439 238.303 438.622 239.302 438.622 240.936C438.622 241.027 438.622 241.118 438.622 241.209C438.713 243.116 439.803 244.024 441.437 244.024C441.619 244.024 441.71 244.024 441.891 244.024C451.608 243.207 462.868 241.754 472.767 239.937L472.767 243.842C472.767 245.386 473.947 246.203 476.127 246.203C478.125 246.203 479.305 245.386 479.305 243.842L479.305 208.699L482.847 208.699C484.39 208.699 485.208 207.518 485.208 205.884C485.208 204.158 484.39 203.068 482.847 203.068L441.346 203.068C439.893 203.068 439.076 204.158 439.076 205.884C439.076 207.518 439.893 208.699 441.346 208.699L446.977 208.699ZM453.333 208.699L472.767 208.699L472.767 214.511L453.333 214.511L453.333 208.699ZM453.333 219.323L472.767 219.323L472.767 225.135L453.333 225.135L453.333 219.323ZM453.333 229.948L472.767 229.948L472.767 234.852C466.319 235.851 459.872 236.85 453.333 237.304L453.333 229.948ZM519.08 213.058C519.08 207.427 516.901 205.339 511.361 205.339L494.198 205.339C488.931 205.339 486.661 207.609 486.661 213.058L486.661 235.125C486.661 240.755 488.749 242.753 494.198 242.753L511.361 242.753C516.901 242.753 519.08 240.755 519.08 235.125L519.08 213.058ZM493.199 214.329C493.199 212.149 494.016 211.332 496.65 211.332L508.909 211.332C511.543 211.332 512.451 212.149 512.451 214.329L512.451 233.762C512.451 235.942 511.543 236.759 508.909 236.759L496.65 236.759C494.016 236.759 493.199 235.942 493.199 233.762L493.199 214.329Z" fill="#00b0d3" fill-rule="nonzero" opacity="1" stroke="none"/>
<path d="M582.738 230.856L582.738 261.55C582.738 263.276 584.01 264.184 586.007 264.184C588.096 264.184 589.458 263.276 589.458 261.55L589.458 228.586L600.628 224.863C601.354 224.681 601.899 224.59 602.353 224.59C603.625 224.59 604.079 225.408 604.079 227.315C604.079 233.308 603.625 242.843 602.807 246.839C602.353 249.382 601.445 250.29 599.266 250.29C597.904 250.29 596.541 250.017 595.361 249.745C595.089 249.654 594.816 249.654 594.544 249.654C593.363 249.654 592.364 250.381 592.001 251.924C591.91 252.288 591.91 252.651 591.91 252.923C591.91 254.467 592.727 255.466 593.999 255.739C595.543 256.193 597.904 256.465 600.083 256.465C605.259 256.465 608.074 254.195 609.073 248.837C609.981 243.752 610.708 233.672 610.708 224.409C610.708 220.141 608.074 217.598 604.26 217.598C603.08 217.598 601.899 217.78 600.537 218.234L589.458 221.957L589.458 202.524C589.458 200.889 588.096 199.981 586.007 199.981C584.01 199.981 582.738 200.889 582.738 202.524L582.738 224.227L570.388 228.314L570.388 211.332C570.388 209.698 569.117 208.789 567.028 208.789C565.03 208.789 563.668 209.698 563.668 211.332L563.668 230.584L555.041 233.49C553.861 233.853 553.316 234.852 553.316 236.214C553.316 236.577 553.316 236.85 553.406 237.213C553.679 238.666 554.587 239.756 555.858 239.756C556.131 239.756 556.403 239.756 556.676 239.665L563.668 237.304L563.668 271.267C563.668 277.079 565.121 279.894 572.386 280.893C576.291 281.438 581.467 281.62 586.825 281.62C592.909 281.62 597.268 281.347 601.173 280.802C607.348 279.985 609.618 278.078 611.071 274.99C612.07 272.811 612.978 268.27 613.16 263.548C613.16 263.457 613.16 263.367 613.16 263.367C613.16 261.278 611.979 260.188 609.981 260.097C609.891 260.097 609.8 260.097 609.709 260.097C607.711 260.097 606.349 261.006 606.258 263.094C606.167 266.273 605.713 269.451 604.987 271.267C604.26 272.811 602.898 273.719 600.083 274.264C596.632 274.809 592.092 274.99 587.006 274.99C582.557 274.99 577.562 274.9 574.656 274.536C570.933 274.082 570.388 273.174 570.388 269.905L570.388 235.034L582.738 230.856ZM546.596 224.046L546.596 202.978C546.596 201.343 545.234 200.435 543.236 200.435C541.147 200.435 539.876 201.343 539.876 202.978L539.876 224.046L531.521 224.046C529.887 224.046 529.069 225.317 529.069 227.133C529.069 228.949 529.887 230.312 531.521 230.312L539.876 230.312L539.876 262.004C536.788 263.185 533.61 264.366 530.795 265.274C529.433 265.728 528.706 266.817 528.706 268.089C528.706 268.634 528.797 269.088 528.978 269.633C529.523 271.176 530.522 271.994 531.884 271.994C532.338 271.994 532.792 271.903 533.337 271.721C540.33 269.269 550.046 265.001 556.222 261.278C557.493 260.642 558.038 259.734 558.038 258.644C558.038 258.1 557.856 257.464 557.584 256.828C557.13 255.648 556.312 255.103 555.314 255.103C554.769 255.103 554.133 255.284 553.497 255.648C551.409 256.828 549.048 258.009 546.596 259.098L546.596 230.312L554.224 230.312C555.858 230.312 556.676 228.949 556.676 227.133C556.676 225.317 555.858 224.046 554.224 224.046L546.596 224.046Z" fill="#00b0d3" fill-rule="nonzero" opacity="1" stroke="none"/>
</g>
<g opacity="1">
<path d="M682.661 279.932L682.661 213.758L682.322 213.758L664.48 279.932L655.333 279.932L637.717 213.758L637.378 213.758L637.378 279.932L628.005 279.932L628.005 199.981L642.911 199.981L659.963 263.445L660.415 263.445L677.128 199.981L692.711 199.981L692.711 279.932L682.661 279.932Z" fill="#00b0d3" fill-rule="nonzero" opacity="1" stroke="none"/>
<path d="M741.467 279.932L736.95 261.186L713.8 261.186L709.17 279.932L698.894 279.932L718.994 199.981L732.433 199.981L752.081 279.932L741.467 279.932ZM725.77 209.467L725.318 209.467L715.155 253.168L735.594 253.168L725.77 209.467Z" fill="#00b0d3" fill-rule="nonzero" opacity="1" stroke="none"/>
<path d="M799.708 222.453C799.708 226.292 799.143 229.68 798.014 232.616C796.884 235.552 795.36 237.98 793.44 239.9C791.52 241.82 789.337 243.269 786.891 244.247C784.444 245.226 781.865 245.715 779.155 245.715L768.314 245.715L768.314 279.932L758.264 279.932L758.264 199.981L778.478 199.981C780.887 199.981 783.352 200.338 785.874 201.054C788.396 201.769 790.674 202.992 792.706 204.724C794.739 206.455 796.414 208.77 797.731 211.669C799.049 214.567 799.708 218.162 799.708 222.453ZM789.657 222.566C789.657 217.748 788.528 214.228 786.269 212.007C784.011 209.786 781.075 208.676 777.461 208.676L768.314 208.676L768.314 237.246L777.461 237.246C781.075 237.246 784.011 236.023 786.269 233.576C788.528 231.129 789.657 227.459 789.657 222.566Z" fill="#00b0d3" fill-rule="nonzero" opacity="1" stroke="none"/>
</g>
</g>
<g id="レイヤー-3" vectornator:layerName="レイヤー 3">
<g opacity="1">
<path d="M72.5634 158.002C68.6885 158.002 65.002 157.653 61.5038 156.953C58.0056 156.253 54.7766 155.311 51.8166 154.127C48.8566 152.943 46.1388 151.598 43.6631 150.091C41.1875 148.584 39.1981 147.304 36.2326 146.535L54.4433 118.083C56.8759 121.439 59.3511 122.644 62.3111 123.936C65.271 125.227 68.2041 125.873 71.1103 125.873C72.9401 125.873 74.4739 125.416 75.7117 124.501C76.9495 123.586 77.5684 122.267 77.5684 120.545C77.5684 118.5 76.6805 116.778 74.9045 115.379C73.1285 113.979 70.3568 112.365 66.5896 110.535C63.3605 109.028 60.2929 107.333 57.3867 105.449C54.4806 103.566 51.8973 101.278 49.6369 98.5874C47.3766 95.8965 45.5737 92.7481 44.2282 89.1423C42.8828 85.5365 42.2101 81.3118 42.2101 76.4682C42.2101 69.4718 43.4479 63.525 45.9235 58.6275C48.3991 53.7301 51.5475 49.7476 55.3685 46.68C59.1896 43.6123 63.4412 41.3789 68.1234 39.9796C72.8056 38.5804 77.407 37.8807 81.9277 37.8807C88.8164 37.8807 96.6808 39.1363 100.414 41.1098C110.452 46.416 115.743 47.3877 115.743 47.3877L96.1564 76.2801C91.3505 69.2179 85.4797 69.3642 83.2193 69.3642C81.4972 69.3642 79.9364 69.7948 78.5372 70.6558C77.1379 71.5169 76.4383 73.0238 76.4383 75.1766C76.4383 76.8987 77.1648 78.298 78.6179 79.3743C80.071 80.4507 82.8964 82.0114 87.0942 84.0565C89.4622 85.2405 92.0993 86.7205 95.0055 88.4965C97.9116 90.2725 100.656 92.5328 103.24 95.2775C105.823 98.0223 108.002 101.332 109.778 105.207C111.554 109.082 112.442 113.656 112.442 118.931C112.442 125.819 111.312 131.739 109.052 136.69C106.792 141.642 103.778 145.678 100.011 148.799C96.2433 151.921 91.9647 154.235 87.1749 155.742C82.3852 157.249 77.5146 158.002 72.5634 158.002Z" fill="#ffffff" fill-rule="nonzero" opacity="1" stroke="none"/>
<path d="M123.421 40.7869C123.421 40.7869 158.57 45.4367 184.451 40.7869L184.451 71.6246C169.422 68.8766 156.842 71.6246 156.842 71.6246L156.842 83.0878C156.842 83.0878 170.017 85.326 181.868 83.0878L181.868 111.665C169.225 109.071 156.842 111.665 156.842 111.665L156.842 123.774C156.842 123.774 170.236 126.762 186.55 123.774L189.456 155.096L123.421 155.096L123.421 40.7869Z" fill="#ffffff" fill-rule="nonzero" opacity="1" stroke="none"/>
<path d="M216.58 155.096C216.58 155.096 200.53 69.6662 189.456 40.7869L230.189 40.7869C230.462 62.0969 239.83 112.957 239.83 112.957L240.314 112.957C240.314 112.957 248.077 61.5338 248.75 40.7869L288.589 40.7869C278.08 70.1238 260.819 155.096 260.819 155.096L216.58 155.096Z" fill="#ffffff" fill-rule="nonzero" opacity="1" stroke="none"/>
<path d="M401.283 101.171C401.283 101.171 397.992 133.572 402.575 155.096L371.414 155.096C371.414 155.096 375.252 97.9415 371.414 40.7869L408.71 40.7869C410.567 63.8275 426.632 96.4885 426.632 96.4885L427.277 96.4885C427.277 96.4885 430.356 63.43 426.309 40.7869L456.339 40.7869C452.912 97.9415 456.339 155.096 456.339 155.096L420.012 155.096C420.012 155.096 415.581 121.418 401.283 101.171Z" fill="#ffffff" fill-rule="nonzero" opacity="1" stroke="none"/>
<path d="M519.468 155.096L484.916 155.096C490.149 107.396 484.916 70.4944 484.916 70.4944L464.697 70.4944L464.735 40.7869L539.649 40.7869L539.649 70.4944L519.468 70.4944C519.468 70.4944 512.983 110.783 519.468 155.096Z" fill="#ffffff" fill-rule="nonzero" opacity="1" stroke="none"/>
<path d="M728.712 101.171C728.712 101.171 725.421 133.572 730.003 155.096L698.843 155.096C698.843 155.096 702.68 97.9415 698.843 40.7869L736.139 40.7869C737.995 63.8275 754.06 96.4885 754.06 96.4885L754.706 96.4885C754.706 96.4885 757.785 63.43 753.737 40.7869L783.767 40.7869C780.34 97.9415 783.767 155.096 783.767 155.096L747.44 155.096C747.44 155.096 743.009 121.418 728.712 101.171Z" fill="#ffffff" fill-rule="nonzero" opacity="1" stroke="none"/>
<path d="M296.015 40.7869C296.015 40.7869 331.164 45.4367 357.045 40.7869L357.045 71.6246C342.016 68.8766 329.436 71.6246 329.436 71.6246L329.436 83.0878C329.436 83.0878 342.611 85.326 354.462 83.0878L354.462 111.665C341.819 109.071 329.436 111.665 329.436 111.665L329.436 123.774C329.436 123.774 342.83 126.762 359.144 123.774L362.05 155.096L296.015 155.096L296.015 40.7869Z" fill="#ffffff" fill-rule="nonzero" opacity="1" stroke="none"/>
<path d="M548.045 40.7869C548.045 40.7869 583.193 45.4367 609.074 40.7869L609.074 71.6246C594.046 68.8766 581.466 71.6246 581.466 71.6246L581.466 83.0878C581.466 83.0878 594.64 85.326 606.491 83.0878L606.491 111.665C593.849 109.071 581.466 111.665 581.466 111.665L581.466 123.774C581.466 123.774 594.859 126.762 611.173 123.774L614.079 155.096L548.045 155.096L548.045 40.7869Z" fill="#ffffff" fill-rule="nonzero" opacity="1" stroke="none"/>
<path d="M623.444 40.7869C623.444 40.7869 658.592 45.4367 684.473 40.7869L684.473 71.6246C669.445 68.8766 656.865 71.6246 656.865 71.6246L656.865 83.0878C656.865 83.0878 670.039 85.326 681.89 83.0878L681.89 111.665C669.248 109.071 656.865 111.665 656.865 111.665L656.865 123.774C656.865 123.774 670.258 126.762 686.572 123.774L689.478 155.096L623.444 155.096L623.444 40.7869Z" fill="#ffffff" fill-rule="nonzero" opacity="1" stroke="none"/>
</g>
<g opacity="1">
<path d="M573.535 219.047L572.932 219.047L559.67 279.932L538.873 279.932L526.666 219.047L526.063 219.047C526.063 219.047 521.864 254.694 527.419 279.932L498.032 279.932C502.301 226.582 498.032 173.233 498.032 173.233L537.064 173.233L549.573 228.994L550.175 228.994L562.533 173.233L603.977 173.233C603.977 173.233 598.422 230.724 603.977 279.932L572.028 279.932C576.997 254.596 573.535 219.047 573.535 219.047Z" fill="#ffffff" fill-rule="nonzero" opacity="1" stroke="none"/>
<path d="M665.163 265.163L646.777 265.163C646.777 265.163 644.012 270.778 645.123 279.932L611.211 279.932C611.211 279.932 631.423 226.582 636.378 173.233L676.918 173.233C683.008 226.582 702.236 279.932 702.236 279.932L666.5 279.932C667.519 272.339 665.163 265.163 665.163 265.163ZM650.394 239.844L661.245 239.844L656.271 205.182L655.669 205.182L650.394 239.844Z" fill="#ffffff" fill-rule="nonzero" opacity="1" stroke="none"/>
<path d="M741.419 246.475C741.419 246.475 740.059 263.37 743.25 279.932L709.47 279.932C715.712 220.912 709.47 173.233 709.47 173.233L747.598 173.233C751.818 173.233 756.088 173.836 760.408 175.041C764.728 176.247 768.622 178.256 772.088 181.07C775.554 183.883 778.367 187.6 780.527 192.222C782.687 196.843 783.767 202.62 783.767 209.553C783.767 216.184 782.738 221.835 780.678 226.507C778.618 231.179 775.931 234.997 772.615 237.96C769.3 240.924 765.532 243.084 761.312 244.441C757.093 245.797 752.823 246.475 748.503 246.475L741.419 246.475ZM741.419 200.661L741.419 220.253L745.338 220.253C747.448 220.253 749.382 219.348 751.14 217.54C752.898 215.732 753.777 213.27 753.777 210.155C753.777 206.74 752.898 204.303 751.14 202.846C749.382 201.39 747.448 200.661 745.338 200.661L741.419 200.661Z" fill="#ffffff" fill-rule="nonzero" opacity="1" stroke="none"/>
</g>
<g opacity="1">
<path d="M82.7712 247.912L74.4445 247.912L55.5096 247.57L54.7112 248.369L54.7112 259.091L55.5096 259.889L74.4445 259.547L82.7712 259.547L82.7712 263.996C60.17 265.332 38.9702 262.009 38.9702 262.009L38.1717 262.807L38.1717 276.429L38.9702 277.227L57.905 276.885L124.747 276.885L143.568 277.227L144.366 276.429L144.413 262.751L143.615 261.952C143.615 261.952 121.411 265.474 98.7404 263.996L98.7404 259.547L107.409 259.547L126.23 259.889L127.029 259.091L127.029 248.369L126.23 247.57L107.409 247.912L98.7404 247.912L98.7404 243.806L115.508 243.806L134.329 244.148L135.127 243.35L135.127 232.057L134.329 231.259C134.329 231.259 111.881 233.092 90.3228 233.092C68.7645 233.092 48.0954 231.259 48.0954 231.259L47.2969 232.057L47.2969 243.35L48.0954 244.148L67.0302 243.806L82.7712 243.806L82.7712 247.912ZM118.395 223.508C128.622 223.452 139.005 224.301 139.005 224.301L139.804 223.503L139.462 207.99L139.462 194.986L139.804 181.755L139.005 180.956C139.005 180.956 130.036 182.118 118.554 182.084C107.073 182.05 97.2575 180.956 97.2575 180.956L96.4591 181.755L96.8012 194.986L96.8012 207.99L96.4591 223.503L97.2575 224.301C97.2575 224.301 108.167 223.564 118.395 223.508ZM111.63 210.613L111.63 194.644L124.177 194.644L124.177 210.613L111.63 210.613ZM45.2438 187.686L45.2438 217.913C42.3921 218.141 39.5405 218.37 36.8029 218.598L36.2326 219.624L39.7686 229.776L40.7952 230.346C53.6846 228.635 64.863 226.924 74.9007 225.213L74.7867 229.89L90.6417 229.89L90.0714 207.077L90.0714 187.8L94.7481 187.914L95.5465 187.116L95.5465 176.736L94.7481 175.937C94.7481 175.937 83.8411 177.469 67.0917 177.52C50.3422 177.571 37.8295 175.937 37.8295 175.937L37.0311 176.736L37.0311 187.116L37.8295 187.914L45.2438 187.686ZM75.2429 187.572L75.2429 191.45L59.2738 191.45L59.2738 187.572L75.2429 187.572ZM75.2429 199.549L75.2429 203.541L59.2738 203.541L59.2738 199.549L75.2429 199.549ZM75.1289 211.64L75.1289 214.834C69.8818 215.518 64.5208 216.088 59.2738 216.659L59.2738 211.64L75.1289 211.64Z" fill="#ffffff" fill-rule="nonzero" opacity="1" stroke="none"/>
<path d="M216.57 218.256L216.57 228.635L216.228 258.178L231.74 258.178L231.512 236.62L234.706 244.947C235.391 246.886 235.961 247 237.786 247C248.622 247 253.185 243.464 254.211 228.407C254.896 218.256 254.896 208.56 254.782 191.108L253.527 190.195L242.577 194.416L231.398 198.522C231.398 198.522 230.916 187.56 233.398 173.656L232.486 172.743L215.368 172.743L214.57 173.542C216.473 186.454 216.57 203.883 216.57 203.883L209.612 206.393C209.612 206.393 209.215 195.368 211.612 184.15L210.699 183.123L193.011 183.123L192.213 184.036C194.438 197.34 194.213 211.754 194.213 211.754L189.08 213.237L189.08 204.91L188.396 204.34L177.788 204.568C177.788 204.568 177.309 191.017 179.788 176.964L178.989 176.165L161.643 176.165L160.845 177.078C163.034 189.473 162.845 204.682 162.845 204.682L152.123 204.34L151.439 205.024L151.439 217.571L152.237 218.256L162.845 217.913L162.845 249.053C158.739 250.08 154.518 250.992 150.298 251.905L149.728 252.931L154.062 266.277L155.089 266.847C165.811 263.768 179.955 259.205 187.483 256.125C189.308 255.327 189.764 254.642 189.764 252.589L189.764 241.069C185.772 242.437 181.78 243.692 177.788 244.947L177.788 218.027L181.438 218.027L185.316 229.206L186.342 229.776L194.213 226.696L194.213 244.719L193.985 265.935C193.985 274.946 197.293 278.596 221.246 278.596C245.885 278.596 249.991 277.912 254.553 274.147C258.318 271.068 260.314 268.018 261.257 257.494C261.371 256.125 261.257 255.669 260.002 255.213L243.575 249.777C242.862 249.681 242.912 250.545 242.912 250.545C244.176 258.939 244.288 260.574 242.349 262.171C240.523 263.768 237.672 264.224 222.273 264.224C209.954 264.224 209.612 264.11 209.612 260.46L209.612 220.879L216.57 218.256ZM231.398 212.666L239.953 209.472C239.953 216.316 239.725 224.073 239.383 227.381C238.927 231.601 238.014 232.628 235.961 232.97C234.136 233.312 233.337 233.426 231.398 233.426L231.398 212.666Z" fill="#ffffff" fill-rule="nonzero" opacity="1" stroke="none"/>
<path d="M375.006 262.741C355.387 264.224 331.89 265.25 317.746 264.68C306.909 264.224 298.811 262.627 294.704 256.467L294.704 234.795L295.047 217.685L294.248 216.887L279.306 217.229L276.796 217.229C276.796 217.229 270.549 217.06 266.302 215.887L265.618 216.571L265.618 231.575L266.416 232.259C271.475 230.952 276.796 230.917 276.796 230.917L279.306 230.917L279.306 255.213C274.173 258.064 272.631 259.489 264.762 260.881L264.42 261.908L273.709 278.596L275.065 278.416C279.925 271.273 282.043 270.611 286.378 267.075C293.108 275.516 302.347 277.798 312.27 278.482C319.457 279.052 328.696 279.28 338.734 279.28C347.517 279.28 357.098 279.052 366.566 278.71C367.82 278.71 368.162 278.71 368.619 277.569L375.006 262.741ZM296.415 191.678L296.529 190.424C290.712 184.378 285.465 179.587 278.849 175.253L277.709 175.481L267.785 183.808L267.671 184.72C274.629 189.967 279.192 194.644 284.096 200.918L285.693 200.918L296.415 191.678ZM356.756 177.306C352.65 190.994 347.403 203.541 340.445 216.088C340.331 216.316 340.331 216.773 340.331 217.229C340.331 217.685 340.331 218.141 340.445 218.37C346.832 229.662 356.481 245.701 358.125 261.258L375.409 254.186C369.997 238.266 355.521 217.201 355.521 217.201C362.137 206.25 367.82 195.785 372.839 182.781L372.383 181.641L357.897 176.85L356.756 177.306ZM310.217 175.937C306.681 189.625 302.461 202.743 296.301 216.088C296.187 216.316 296.187 216.773 296.187 217.229C296.187 217.685 296.187 218.141 296.301 218.37C302.233 230.346 310.393 247.98 311.358 261.258L328.186 254.186C323.351 235.152 311.138 217.115 311.138 217.115C316.157 207.077 321.852 194.416 325.844 181.412L325.388 180.272L311.358 175.481L310.217 175.937ZM333.259 176.622C329.722 190.31 324.133 204.454 318.202 216.088C318.088 216.316 318.088 216.773 318.088 217.229C318.088 217.685 318.088 218.141 318.202 218.37C323.282 227.916 335.092 252.651 334.399 261.258L351.342 254.186C347.461 239.114 332.91 217.217 332.91 217.217C338.955 206.153 344.665 195.1 349 182.097L348.543 180.956L334.399 176.165L333.259 176.622Z" fill="#ffffff" fill-rule="nonzero" opacity="1" stroke="none"/>
<path d="M415.385 230.46L415.385 227.495C422.343 219.51 428.503 210.157 433.75 198.294C433.978 197.724 434.092 197.268 434.092 196.697C434.092 195.785 433.636 194.986 433.294 194.644L426.906 188.827L419.948 189.169L415.385 189.169C415.385 189.169 415.11 179.376 417.385 172.743L416.701 171.831L398.443 171.831L397.644 172.629C399.802 179.091 399.644 189.169 399.644 189.169L396.108 189.169C396.108 189.169 387.358 188.781 382.192 186.827L381.508 187.511L381.508 202.743L382.192 203.655L396.108 203.427L413.903 203.427C408.199 215.176 393.371 229.89 377.858 237.647L386.185 248.939C386.641 249.509 387.097 249.852 387.668 249.852C388.238 249.852 388.922 249.509 389.721 249.053C393.143 247 396.679 244.491 399.644 241.981L399.644 253.274L399.074 281.334L415.956 281.334L415.385 253.274L415.385 236.392C420.176 240.384 424.397 244.719 428.047 249.509L429.53 249.623L438.883 239.7L438.655 264.224C438.541 277.227 440.936 278.938 461.24 278.938C469.795 278.938 475.042 278.482 479.148 274.946C483.368 271.524 484.965 264.794 484.965 256.011C484.965 253.388 484.851 252.817 483.14 252.019L468.996 245.859C468.768 261.258 468.312 262.741 461.81 262.741C456.563 262.741 455.765 262.399 455.765 258.749C455.765 258.749 454.395 187.51 457.765 176.964L456.966 176.165L437.681 176.165L436.883 176.964C439.811 185.927 438.883 237.989 438.883 237.989C433.75 232.856 428.047 228.293 422.458 224.985L421.089 224.871L415.385 230.46Z" fill="#ffffff" fill-rule="nonzero" opacity="1" stroke="none"/>
</g>
</g>
</svg>
